<svg xmlns="http://www.w3.org/2000/svg" width="1600" height="1000" viewBox="0 0 1600 1000">
<rect width="100%" height="100%" fill="#FFFFFF"/>
<text x="70" y="58" font-family="sans-serif" font-size="34" font-weight="700" fill="#111827">RobustFake retains its ranking advantage after redistribution</text>
<text x="70" y="91" font-family="sans-serif" font-size="17" fill="#4B5563">WildFake official demonstration set · 13,841 images · complete prescribed single-transform matrix · AUROC</text>
<circle cx="78" cy="127" r="8" fill="#0F766E"/>
<text x="94" y="133" font-family="sans-serif" font-size="16" font-weight="600" fill="#374151">RobustFake</text>
<circle cx="288" cy="127" r="8" fill="#2563EB"/>
<text x="304" y="133" font-family="sans-serif" font-size="16" font-weight="600" fill="#374151">CNNDetection</text>
<circle cx="498" cy="127" r="8" fill="#EA580C"/>
<text x="514" y="133" font-family="sans-serif" font-size="16" font-weight="600" fill="#374151">UnivFD</text>
<text x="70" y="178" font-family="sans-serif" font-size="21" font-weight="700" fill="#111827">A. Aggregate comparison</text>
<rect x="70" y="198" width="470" height="260" rx="14" fill="#F8FAFC" stroke="#E2E8F0"/>
<text x="92" y="232" font-family="sans-serif" font-size="18" font-weight="700" fill="#1F2937">Clean</text>
<text x="92" y="287" font-family="sans-serif" font-size="15" fill="#374151">RobustFake</text>
<rect x="215" y="270" width="255" height="22" rx="6" fill="#E5E7EB"/>
<rect x="215" y="270" width="249.7" height="22" rx="6" fill="#0F766E"/>
<text x="520" y="287" text-anchor="end" font-family="sans-serif" font-size="16" font-weight="700" fill="#111827">0.9792</text>
<text x="92" y="349" font-family="sans-serif" font-size="15" fill="#374151">CNNDetection</text>
<rect x="215" y="332" width="255" height="22" rx="6" fill="#E5E7EB"/>
<rect x="215" y="332" width="154.0" height="22" rx="6" fill="#2563EB"/>
<text x="520" y="349" text-anchor="end" font-family="sans-serif" font-size="16" font-weight="700" fill="#111827">0.6041</text>
<text x="92" y="411" font-family="sans-serif" font-size="15" fill="#374151">UnivFD</text>
<rect x="215" y="394" width="255" height="22" rx="6" fill="#E5E7EB"/>
<rect x="215" y="394" width="150.4" height="22" rx="6" fill="#EA580C"/>
<text x="520" y="411" text-anchor="end" font-family="sans-serif" font-size="16" font-weight="700" fill="#111827">0.5898</text>
<rect x="570" y="198" width="470" height="260" rx="14" fill="#F8FAFC" stroke="#E2E8F0"/>
<text x="592" y="232" font-family="sans-serif" font-size="18" font-weight="700" fill="#1F2937">Mean prescribed transform</text>
<text x="592" y="287" font-family="sans-serif" font-size="15" fill="#374151">RobustFake</text>
<rect x="715" y="270" width="255" height="22" rx="6" fill="#E5E7EB"/>
<rect x="715" y="270" width="246.9" height="22" rx="6" fill="#0F766E"/>
<text x="1020" y="287" text-anchor="end" font-family="sans-serif" font-size="16" font-weight="700" fill="#111827">0.9683</text>
<text x="592" y="349" font-family="sans-serif" font-size="15" fill="#374151">CNNDetection</text>
<rect x="715" y="332" width="255" height="22" rx="6" fill="#E5E7EB"/>
<rect x="715" y="332" width="152.4" height="22" rx="6" fill="#2563EB"/>
<text x="1020" y="349" text-anchor="end" font-family="sans-serif" font-size="16" font-weight="700" fill="#111827">0.5975</text>
<text x="592" y="411" font-family="sans-serif" font-size="15" fill="#374151">UnivFD</text>
<rect x="715" y="394" width="255" height="22" rx="6" fill="#E5E7EB"/>
<rect x="715" y="394" width="141.4" height="22" rx="6" fill="#EA580C"/>
<text x="1020" y="411" text-anchor="end" font-family="sans-serif" font-size="16" font-weight="700" fill="#111827">0.5546</text>
<rect x="1070" y="198" width="470" height="260" rx="14" fill="#F8FAFC" stroke="#E2E8F0"/>
<text x="1092" y="232" font-family="sans-serif" font-size="18" font-weight="700" fill="#1F2937">Worst prescribed transform</text>
<text x="1092" y="287" font-family="sans-serif" font-size="15" fill="#374151">RobustFake</text>
<rect x="1215" y="270" width="255" height="22" rx="6" fill="#E5E7EB"/>
<rect x="1215" y="270" width="240.5" height="22" rx="6" fill="#0F766E"/>
<text x="1520" y="287" text-anchor="end" font-family="sans-serif" font-size="16" font-weight="700" fill="#111827">0.9432</text>
<text x="1092" y="349" font-family="sans-serif" font-size="15" fill="#374151">CNNDetection</text>
<rect x="1215" y="332" width="255" height="22" rx="6" fill="#E5E7EB"/>
<rect x="1215" y="332" width="135.5" height="22" rx="6" fill="#2563EB"/>
<text x="1520" y="349" text-anchor="end" font-family="sans-serif" font-size="16" font-weight="700" fill="#111827">0.5314</text>
<text x="1092" y="411" font-family="sans-serif" font-size="15" fill="#374151">UnivFD</text>
<rect x="1215" y="394" width="255" height="22" rx="6" fill="#E5E7EB"/>
<rect x="1215" y="394" width="102.6" height="22" rx="6" fill="#EA580C"/>
<text x="1520" y="411" text-anchor="end" font-family="sans-serif" font-size="16" font-weight="700" fill="#111827">0.4024</text>
<text x="70" y="510" font-family="sans-serif" font-size="21" font-weight="700" fill="#111827">B. Every prescribed scenario</text>
<text x="1530" y="510" text-anchor="end" font-family="sans-serif" font-size="14" fill="#6B7280">Axis starts at 0.35 for readability</text>
<line x1="105.0" y1="854.2" x2="1530.0" y2="854.2" stroke="#D1D5DB" stroke-width="1"/>
<text x="91.0" y="859.2" text-anchor="end" font-family="sans-serif" font-size="14" fill="#6B7280">0.4</text>
<line x1="105.0" y1="802.7" x2="1530.0" y2="802.7" stroke="#D1D5DB" stroke-width="1"/>
<text x="91.0" y="807.7" text-anchor="end" font-family="sans-serif" font-size="14" fill="#6B7280">0.5</text>
<line x1="105.0" y1="751.2" x2="1530.0" y2="751.2" stroke="#D1D5DB" stroke-width="1"/>
<text x="91.0" y="756.2" text-anchor="end" font-family="sans-serif" font-size="14" fill="#6B7280">0.6</text>
<line x1="105.0" y1="699.6" x2="1530.0" y2="699.6" stroke="#D1D5DB" stroke-width="1"/>
<text x="91.0" y="704.6" text-anchor="end" font-family="sans-serif" font-size="14" fill="#6B7280">0.7</text>
<line x1="105.0" y1="648.1" x2="1530.0" y2="648.1" stroke="#D1D5DB" stroke-width="1"/>
<text x="91.0" y="653.1" text-anchor="end" font-family="sans-serif" font-size="14" fill="#6B7280">0.8</text>
<line x1="105.0" y1="596.5" x2="1530.0" y2="596.5" stroke="#D1D5DB" stroke-width="1"/>
<text x="91.0" y="601.5" text-anchor="end" font-family="sans-serif" font-size="14" fill="#6B7280">0.9</text>
<line x1="105.0" y1="545.0" x2="1530.0" y2="545.0" stroke="#D1D5DB" stroke-width="1"/>
<text x="91.0" y="550.0" text-anchor="end" font-family="sans-serif" font-size="14" fill="#6B7280">1.0</text>
<text x="105.0" y="911.0" transform="rotate(35 105.0 911.0)" text-anchor="start" font-family="sans-serif" font-size="13" fill="#4B5563">Clean</text>
<text x="206.8" y="911.0" transform="rotate(35 206.8 911.0)" text-anchor="start" font-family="sans-serif" font-size="13" fill="#4B5563">JPEG 90</text>
<text x="308.6" y="911.0" transform="rotate(35 308.6 911.0)" text-anchor="start" font-family="sans-serif" font-size="13" fill="#4B5563">JPEG 70</text>
<text x="410.4" y="911.0" transform="rotate(35 410.4 911.0)" text-anchor="start" font-family="sans-serif" font-size="13" fill="#4B5563">JPEG 50</text>
<text x="512.1" y="911.0" transform="rotate(35 512.1 911.0)" text-anchor="start" font-family="sans-serif" font-size="13" fill="#4B5563">JPEG 30</text>
<text x="613.9" y="911.0" transform="rotate(35 613.9 911.0)" text-anchor="start" font-family="sans-serif" font-size="13" fill="#4B5563">Blur .5</text>
<text x="715.7" y="911.0" transform="rotate(35 715.7 911.0)" text-anchor="start" font-family="sans-serif" font-size="13" fill="#4B5563">Blur 1</text>
<text x="817.5" y="911.0" transform="rotate(35 817.5 911.0)" text-anchor="start" font-family="sans-serif" font-size="13" fill="#4B5563">Blur 2</text>
<text x="919.3" y="911.0" transform="rotate(35 919.3 911.0)" text-anchor="start" font-family="sans-serif" font-size="13" fill="#4B5563">Resize .5</text>
<text x="1021.1" y="911.0" transform="rotate(35 1021.1 911.0)" text-anchor="start" font-family="sans-serif" font-size="13" fill="#4B5563">Resize .25</text>
<text x="1122.9" y="911.0" transform="rotate(35 1122.9 911.0)" text-anchor="start" font-family="sans-serif" font-size="13" fill="#4B5563">Noise .02</text>
<text x="1224.6" y="911.0" transform="rotate(35 1224.6 911.0)" text-anchor="start" font-family="sans-serif" font-size="13" fill="#4B5563">Noise .05</text>
<text x="1326.4" y="911.0" transform="rotate(35 1326.4 911.0)" text-anchor="start" font-family="sans-serif" font-size="13" fill="#4B5563">Noise .10</text>
<text x="1428.2" y="911.0" transform="rotate(35 1428.2 911.0)" text-anchor="start" font-family="sans-serif" font-size="13" fill="#4B5563">Color</text>
<text x="1530.0" y="911.0" transform="rotate(35 1530.0 911.0)" text-anchor="start" font-family="sans-serif" font-size="13" fill="#4B5563">Crop .8</text>
<polyline points="105.0,555.7 206.8,552.7 308.6,561.3 410.4,565.9 512.1,559.1 613.9,555.9 715.7,565.0 817.5,572.4 919.3,574.3 1021.1,573.6 1122.9,549.8 1224.6,549.7 1326.4,553.3 1428.2,562.7 1530.0,562.7" fill="none" stroke="#0F766E" stroke-width="5" stroke-linejoin="round" stroke-linecap="round" opacity="1.0"/>
<circle cx="105.0" cy="555.7" r="5" fill="#FFFFFF" stroke="#0F766E" stroke-width="3"/>
<circle cx="206.8" cy="552.7" r="5" fill="#FFFFFF" stroke="#0F766E" stroke-width="3"/>
<circle cx="308.6" cy="561.3" r="5" fill="#FFFFFF" stroke="#0F766E" stroke-width="3"/>
<circle cx="410.4" cy="565.9" r="5" fill="#FFFFFF" stroke="#0F766E" stroke-width="3"/>
<circle cx="512.1" cy="559.1" r="5" fill="#FFFFFF" stroke="#0F766E" stroke-width="3"/>
<circle cx="613.9" cy="555.9" r="5" fill="#FFFFFF" stroke="#0F766E" stroke-width="3"/>
<circle cx="715.7" cy="565.0" r="5" fill="#FFFFFF" stroke="#0F766E" stroke-width="3"/>
<circle cx="817.5" cy="572.4" r="5" fill="#FFFFFF" stroke="#0F766E" stroke-width="3"/>
<circle cx="919.3" cy="574.3" r="5" fill="#FFFFFF" stroke="#0F766E" stroke-width="3"/>
<circle cx="1021.1" cy="573.6" r="5" fill="#FFFFFF" stroke="#0F766E" stroke-width="3"/>
<circle cx="1122.9" cy="549.8" r="5" fill="#FFFFFF" stroke="#0F766E" stroke-width="3"/>
<circle cx="1224.6" cy="549.7" r="5" fill="#FFFFFF" stroke="#0F766E" stroke-width="3"/>
<circle cx="1326.4" cy="553.3" r="5" fill="#FFFFFF" stroke="#0F766E" stroke-width="3"/>
<circle cx="1428.2" cy="562.7" r="5" fill="#FFFFFF" stroke="#0F766E" stroke-width="3"/>
<circle cx="1530.0" cy="562.7" r="5" fill="#FFFFFF" stroke="#0F766E" stroke-width="3"/>
<polyline points="105.0,749.0 206.8,748.3 308.6,752.9 410.4,742.9 512.1,745.5 613.9,753.0 715.7,756.5 817.5,747.9 919.3,756.1 1021.1,747.8 1122.9,768.5 1224.6,782.1 1326.4,786.5 1428.2,745.2 1530.0,701.1" fill="none" stroke="#2563EB" stroke-width="3" stroke-linejoin="round" stroke-linecap="round" opacity="0.9"/>
<circle cx="105.0" cy="749.0" r="4" fill="#FFFFFF" stroke="#2563EB" stroke-width="3"/>
<circle cx="206.8" cy="748.3" r="4" fill="#FFFFFF" stroke="#2563EB" stroke-width="3"/>
<circle cx="308.6" cy="752.9" r="4" fill="#FFFFFF" stroke="#2563EB" stroke-width="3"/>
<circle cx="410.4" cy="742.9" r="4" fill="#FFFFFF" stroke="#2563EB" stroke-width="3"/>
<circle cx="512.1" cy="745.5" r="4" fill="#FFFFFF" stroke="#2563EB" stroke-width="3"/>
<circle cx="613.9" cy="753.0" r="4" fill="#FFFFFF" stroke="#2563EB" stroke-width="3"/>
<circle cx="715.7" cy="756.5" r="4" fill="#FFFFFF" stroke="#2563EB" stroke-width="3"/>
<circle cx="817.5" cy="747.9" r="4" fill="#FFFFFF" stroke="#2563EB" stroke-width="3"/>
<circle cx="919.3" cy="756.1" r="4" fill="#FFFFFF" stroke="#2563EB" stroke-width="3"/>
<circle cx="1021.1" cy="747.8" r="4" fill="#FFFFFF" stroke="#2563EB" stroke-width="3"/>
<circle cx="1122.9" cy="768.5" r="4" fill="#FFFFFF" stroke="#2563EB" stroke-width="3"/>
<circle cx="1224.6" cy="782.1" r="4" fill="#FFFFFF" stroke="#2563EB" stroke-width="3"/>
<circle cx="1326.4" cy="786.5" r="4" fill="#FFFFFF" stroke="#2563EB" stroke-width="3"/>
<circle cx="1428.2" cy="745.2" r="4" fill="#FFFFFF" stroke="#2563EB" stroke-width="3"/>
<circle cx="1530.0" cy="701.1" r="4" fill="#FFFFFF" stroke="#2563EB" stroke-width="3"/>
<polyline points="105.0,756.4 206.8,756.3 308.6,768.6 410.4,775.1 512.1,792.4 613.9,789.4 715.7,827.4 817.5,803.2 919.3,808.5 1021.1,853.0 1122.9,717.0 1224.6,709.7 1326.4,740.8 1428.2,759.8 1530.0,742.6" fill="none" stroke="#EA580C" stroke-width="3" stroke-linejoin="round" stroke-linecap="round" opacity="0.9"/>
<circle cx="105.0" cy="756.4" r="4" fill="#FFFFFF" stroke="#EA580C" stroke-width="3"/>
<circle cx="206.8" cy="756.3" r="4" fill="#FFFFFF" stroke="#EA580C" stroke-width="3"/>
<circle cx="308.6" cy="768.6" r="4" fill="#FFFFFF" stroke="#EA580C" stroke-width="3"/>
<circle cx="410.4" cy="775.1" r="4" fill="#FFFFFF" stroke="#EA580C" stroke-width="3"/>
<circle cx="512.1" cy="792.4" r="4" fill="#FFFFFF" stroke="#EA580C" stroke-width="3"/>
<circle cx="613.9" cy="789.4" r="4" fill="#FFFFFF" stroke="#EA580C" stroke-width="3"/>
<circle cx="715.7" cy="827.4" r="4" fill="#FFFFFF" stroke="#EA580C" stroke-width="3"/>
<circle cx="817.5" cy="803.2" r="4" fill="#FFFFFF" stroke="#EA580C" stroke-width="3"/>
<circle cx="919.3" cy="808.5" r="4" fill="#FFFFFF" stroke="#EA580C" stroke-width="3"/>
<circle cx="1021.1" cy="853.0" r="4" fill="#FFFFFF" stroke="#EA580C" stroke-width="3"/>
<circle cx="1122.9" cy="717.0" r="4" fill="#FFFFFF" stroke="#EA580C" stroke-width="3"/>
<circle cx="1224.6" cy="709.7" r="4" fill="#FFFFFF" stroke="#EA580C" stroke-width="3"/>
<circle cx="1326.4" cy="740.8" r="4" fill="#FFFFFF" stroke="#EA580C" stroke-width="3"/>
<circle cx="1428.2" cy="759.8" r="4" fill="#FFFFFF" stroke="#EA580C" stroke-width="3"/>
<circle cx="1530.0" cy="742.6" r="4" fill="#FFFFFF" stroke="#EA580C" stroke-width="3"/>
<text x="70" y="972" font-family="sans-serif" font-size="13" fill="#6B7280">Fairness note: all detectors use the same images and transformations. Public baselines retain their official 224 px preprocessing and uncalibrated heads; AUROC is threshold-independent.</text>
</svg>
